<?xml version="1.0" standalone="no"?>
<!DOCTYPE svg PUBLIC "-//W3C//DTD SVG 20010904//EN"
 "http://www.w3.org/TR/2001/REC-SVG-20010904/DTD/svg10.dtd">
<svg version="1.0" xmlns="http://www.w3.org/2000/svg"
 width="111.000000pt" height="111.000000pt" viewBox="0 0 111.000000 111.000000"
 preserveAspectRatio="xMidYMid meet">
<metadata>
Created by potrace 1.14, written by Peter Selinger 2001-2017
</metadata>
<g transform="translate(0.000000,111.000000) scale(0.100000,-0.100000)"
fill="#000000" stroke="none">
<path d="M352 863 c-12 -43 -35 -135 -53 -205 l-31 -127 -49 19 c-27 11 -49
16 -49 11 0 -4 18 -13 40 -20 45 -13 54 -23 45 -50 -5 -17 -13 -18 -63 -14
-31 3 -54 2 -50 -2 4 -4 26 -9 50 -11 24 -1 46 -3 50 -3 4 -1 4 -11 -1 -23 -6
-17 -18 -23 -47 -26 -59 -5 -65 -10 -11 -11 41 -1 48 -4 43 -18 -3 -10 -10
-37 -16 -60 -6 -24 -15 -43 -21 -43 -6 0 -8 -4 -5 -8 3 -5 26 -8 51 -7 25 1
45 -1 46 -4 7 -55 46 -94 88 -88 45 7 59 17 74 56 l15 36 108 0 c100 0 109 -2
113 -20 7 -37 33 -64 67 -71 44 -8 78 14 93 59 11 34 13 34 62 33 27 -2 52 1
55 6 3 4 -1 8 -9 8 -9 0 -22 20 -31 47 -24 70 -22 76 24 71 22 -2 40 0 40 4 0
8 -20 11 -57 8 -13 -1 -26 7 -32 19 -15 27 -14 31 9 31 11 0 20 4 20 9 0 5
-12 8 -26 5 -15 -3 -23 -1 -20 5 4 5 2 12 -4 16 -17 10 -1 25 48 46 24 11 42
22 39 25 -3 3 -12 2 -19 -2 -16 -11 -78 -33 -78 -28 0 10 -59 232 -68 254 -5
14 -10 28 -10 33 -4 54 -33 132 -38 99 0 -4 -3 -14 -7 -22 -4 -11 -60 -187
-62 -197 0 -1 -22 4 -49 11 -45 12 -115 8 -157 -9 -12 -4 -23 18 -53 115 -21
66 -39 120 -41 120 -1 0 -12 -35 -23 -77z"/>
<path d="M930 471 c0 -4 11 -6 25 -3 14 2 25 6 25 8 0 2 -11 4 -25 4 -14 0
-25 -4 -25 -9z"/>
<path d="M10 272 c0 -5 9 -8 20 -7 29 2 33 10 5 13 -14 1 -25 -2 -25 -6z"/>
<path d="M90 270 c0 -5 7 -7 15 -4 8 4 15 8 15 10 0 2 -7 4 -15 4 -8 0 -15 -4
-15 -10z"/>
<path d="M135 270 c3 -5 12 -7 20 -3 21 7 19 13 -6 13 -11 0 -18 -4 -14 -10z"/>
<path d="M970 272 c0 -10 127 -8 137 1 3 4 -26 7 -65 7 -40 0 -72 -4 -72 -8z"/>
</g>
</svg>
